HIERARCHY
ROOT joint_Root
{
	OFFSET 0.0 0.0 0.0
	CHANNELS 6 Xposition Yposition Zposition Zrotation Xrotation Yrotation 
	JOINT Hips
	{
		OFFSET -0.726466 93.3139 -2.00062
		CHANNELS 6 Xposition Yposition Zposition Zrotation Xrotation Yrotation 
		JOINT Spine
		{
			OFFSET 15.7357 0.0 0.0
			CHANNELS 6 Xposition Yposition Zposition Zrotation Xrotation Yrotation 
			JOINT Chest
			{
				OFFSET 8.98455 -0.406207 0.0
				CHANNELS 6 Xposition Yposition Zposition Zrotation Xrotation Yrotation 
				JOINT Neck
				{
					OFFSET 16.3773 0.0 0.0
					CHANNELS 6 Xposition Yposition Zposition Zrotation Xrotation Yrotation 
					JOINT Head
					{
						OFFSET 6.45672 0.0 0.0
						CHANNELS 6 Xposition Yposition Zposition Zrotation Xrotation Yrotation 
						End Site
						{
							OFFSET 0.0 0.0 0.0
						}
					}
				}
				JOINT Shoulder_L
				{
					OFFSET 12.9942 -0.242716 4.98039
					CHANNELS 6 Xposition Yposition Zposition Zrotation Xrotation Yrotation 
					JOINT UpperArm_L
					{
						OFFSET 5.34809 0.0 0.0
						CHANNELS 6 Xposition Yposition Zposition Zrotation Xrotation Yrotation 
						JOINT LowerArm_L
						{
							OFFSET 24.3286 1.87007e-05 0.0
							CHANNELS 6 Xposition Yposition Zposition Zrotation Xrotation Yrotation 
							JOINT Hand_L
							{
								OFFSET 22.2916 0.0 0.0
								CHANNELS 6 Xposition Yposition Zposition Zrotation Xrotation Yrotation 
								End Site
								{
									OFFSET 0.0 0.0 0.0
								}
							}
						}
					}
				}
				JOINT Shoulder_R
				{
					OFFSET 12.9945 -0.242716 -4.98039
					CHANNELS 6 Xposition Yposition Zposition Zrotation Xrotation Yrotation 
					JOINT UpperArm_R
					{
						OFFSET -5.34813 0.0 0.0
						CHANNELS 6 Xposition Yposition Zposition Zrotation Xrotation Yrotation 
						JOINT LowerArm_R
						{
							OFFSET -24.3289 0.000322201 0.0
							CHANNELS 6 Xposition Yposition Zposition Zrotation Xrotation Yrotation 
							JOINT Hand_R
							{
								OFFSET -22.2915 -0.000108084 0.0
								CHANNELS 6 Xposition Yposition Zposition Zrotation Xrotation Yrotation 
								End Site
								{
									OFFSET 0.0 0.0 0.0
								}
							}
						}
					}
				}
			}
		}
		JOINT UpperLeg_L
		{
			OFFSET -2.19248 -6.46944 0.0
			CHANNELS 6 Xposition Yposition Zposition Zrotation Xrotation Yrotation 
			JOINT LowerLeg_L
			{
				OFFSET 39.0811 0.0 -1.23785e-05
				CHANNELS 6 Xposition Yposition Zposition Zrotation Xrotation Yrotation 
				JOINT Foot_L
				{
					OFFSET 40.9854 0.0 -1.26872e-05
					CHANNELS 6 Xposition Yposition Zposition Zrotation Xrotation Yrotation 
					JOINT Toes_L
					{
						OFFSET 11.7543 0.0 0.0
						CHANNELS 6 Xposition Yposition Zposition Zrotation Xrotation Yrotation 
						End Site
						{
							OFFSET 0.0 0.0 0.0
						}
					}
				}
			}
		}
		JOINT UpperLeg_R
		{
			OFFSET -2.19251 6.46944 0.0
			CHANNELS 6 Xposition Yposition Zposition Zrotation Xrotation Yrotation 
			JOINT LowerLeg_R
			{
				OFFSET -39.0811 -0.00228153 -0.0401928
				CHANNELS 6 Xposition Yposition Zposition Zrotation Xrotation Yrotation 
				JOINT Foot_R
				{
					OFFSET -40.9854 0.0 0.0
					CHANNELS 6 Xposition Yposition Zposition Zrotation Xrotation Yrotation 
					JOINT Toes_R
					{
						OFFSET -11.7543 0.0 0.0
						CHANNELS 6 Xposition Yposition Zposition Zrotation Xrotation Yrotation 
						End Site
						{
							OFFSET 0.0 0.0 0.0
						}
					}
				}
			}
		}
	}
}
MOTION
Frames:	6
Frame Time:	0.0333333
0.000000 0.000000 0.000000 0.000000 0.000000 -0.000000 -0.657106 92.206500 -1.192830 87.887600 -0.635214 2.807010 15.735700 0.000005 -0.000001 83.078600 87.159800 -82.715600 8.984550 -0.406207 -0.000000 -2.124760 -0.715670 0.712682 16.377300 -0.000001 -0.000001 -3.548980 -2.460530 0.556992 6.456720 -0.000001 -0.000000 -4.210380 -3.394460 1.448770 12.994200 -0.242716 4.980390 -85.167900 -9.864900 -63.737000 5.348090 -0.000007 -0.000001 -56.802700 -56.707900 -54.363700 24.328600 0.000019 0.000005 -1.085350 -2.068440 -27.695200 22.291600 -0.000001 0.000005 20.507500 5.518690 -7.306210 12.994500 -0.242716 -4.980390 91.785300 -3.763500 -64.598600 -5.348130 -0.000001 -0.000004 -58.978900 -54.527800 -67.751600 -24.328900 0.000322 -0.000009 0.390260 1.123500 -19.204800 -22.291500 -0.000108 -0.000004 18.201400 5.361300 -1.719410 -2.192480 -6.469440 -0.000000 -169.598000 -16.920200 -3.630220 39.081100 -0.000007 -0.000012 -0.163018 0.419101 21.254800 40.985400 -0.000006 -0.000013 -6.992150 -3.130090 -62.810600 11.754300 -0.000000 0.000003 -0.000125 -0.001243 -16.625000 -2.192510 6.469440 -0.000001 174.666000 22.063400 178.523000 -39.081100 -0.002282 -0.040193 0.021742 -0.052561 19.312400 -40.985400 0.000008 0.000006 -1.820720 -0.257552 -62.804800 -11.754300 -0.000006 -0.000006 -0.004121 -0.052692 -18.716500
0.000000 0.000000 0.000000 0.000000 0.000000 -0.000000 -0.640540 92.206600 -1.270890 87.912100 -0.636244 2.875420 15.735700 0.000005 -0.000001 82.404400 87.183400 -82.017200 8.984550 -0.406207 -0.000000 -2.179510 -0.777986 0.759394 16.377300 -0.000001 -0.000001 -3.498170 -2.466940 0.609629 6.456720 -0.000001 -0.000000 -4.135540 -3.324430 1.381530 12.994200 -0.242716 4.980390 -85.125500 -9.905200 -63.628900 5.348090 -0.000007 -0.000001 -56.690500 -56.349300 -57.088100 24.328600 0.000019 0.000005 -1.312600 -2.403490 -28.651100 22.291600 -0.000001 0.000005 20.536600 5.525210 -7.586150 12.994500 -0.242716 -4.980390 91.827300 -3.849980 -64.585100 -5.348130 -0.000001 -0.000004 -58.807600 -54.176800 -70.683700 -24.328900 0.000322 -0.000009 0.248970 0.678796 -20.224500 -22.291500 -0.000108 -0.000004 18.251000 5.366760 -1.886610 -2.192480 -6.469440 -0.000000 -169.634000 -16.913700 -3.623400 39.081100 -0.000007 -0.000012 -0.160868 0.412887 21.287000 40.985400 -0.000006 -0.000013 -6.952410 -3.092810 -62.788300 11.754300 -0.000000 0.000003 -0.000130 -0.001290 -16.626800 -2.192510 6.469440 -0.000001 174.616000 22.065100 178.519000 -39.081100 -0.002282 -0.040193 0.021529 -0.051773 19.375000 -40.985400 0.000008 0.000006 -1.767110 -0.249095 -62.792500 -11.754300 -0.000006 -0.000006 -0.004149 -0.052977 -18.728200
0.000000 0.000000 0.000000 0.000000 0.000000 -0.000000 -0.629732 92.215600 -1.348620 87.921100 -0.600242 3.011660 15.735700 0.000005 -0.000001 82.308600 87.191600 -81.894600 8.984550 -0.406207 -0.000000 -2.196800 -0.787521 0.812757 16.377300 -0.000001 -0.000001 -3.452850 -2.455400 0.592711 6.456720 -0.000001 -0.000000 -4.074340 -3.312700 1.405080 12.994200 -0.242716 4.980390 -85.078000 -9.967380 -63.547900 5.348090 -0.000007 -0.000001 -56.596700 -55.917400 -60.437400 24.328600 0.000019 0.000005 -1.605560 -2.808990 -29.767400 22.291600 -0.000001 0.000005 20.702100 5.529840 -7.788230 12.994500 -0.242716 -4.980390 91.928900 -4.053180 -64.523000 -5.348130 -0.000001 -0.000004 -58.737400 -53.984400 -74.151300 -24.328900 0.000322 -0.000009 0.039863 0.104099 -21.475600 -22.291500 -0.000108 -0.000004 18.241300 5.381170 -2.335360 -2.192480 -6.469440 -0.000000 -169.607000 -16.953200 -3.527940 39.081100 -0.000007 -0.000012 -0.161104 0.414350 21.246900 40.985400 -0.000006 -0.000013 -6.916900 -3.008710 -62.699700 11.754300 -0.000000 0.000003 -0.000119 -0.001190 -16.623000 -2.192510 6.469440 -0.000001 174.581000 22.087700 178.599000 -39.081100 -0.002282 -0.040193 0.024399 -0.059921 19.378600 -40.985400 0.000008 0.000006 -1.716140 -0.276548 -62.737200 -11.754300 -0.000006 -0.000006 -0.004250 -0.054015 -18.770400
0.000000 0.000000 0.000000 0.000000 0.000000 -0.000000 -0.625678 92.215000 -1.430080 87.935000 -0.560204 3.116190 15.735700 0.000005 -0.000001 81.776400 87.227600 -81.346400 8.984550 -0.406207 -0.000000 -2.275060 -0.830544 0.843576 16.377300 -0.000001 -0.000001 -3.282610 -2.474450 0.626077 6.456720 -0.000001 -0.000000 -4.072590 -3.269690 1.418460 12.994200 -0.242716 4.980390 -84.950700 -10.148600 -63.368700 5.348090 -0.000007 -0.000001 -56.704100 -55.457100 -64.237300 24.328600 0.000019 0.000005 -1.822720 -3.020840 -31.127200 22.291600 -0.000001 0.000005 20.552400 5.532480 -7.904880 12.994500 -0.242716 -4.980390 92.054600 -4.325890 -64.563300 -5.348130 -0.000001 -0.000004 -58.571600 -53.857300 -77.851900 -24.328900 0.000322 -0.000009 -0.114569 -0.267832 -22.963400 -22.291500 -0.000108 -0.000004 18.228600 5.386970 -2.518520 -2.192480 -6.469440 -0.000000 -169.618000 -16.875200 -3.509450 39.081100 -0.000007 -0.000012 -0.161467 0.414488 21.283900 40.985400 -0.000006 -0.000013 -6.902920 -3.051890 -62.665500 11.754300 -0.000000 0.000003 -0.000126 -0.001251 -16.625300 -2.192510 6.469440 -0.000001 174.526000 22.094800 178.646000 -39.081100 -0.002282 -0.040193 0.022201 -0.053546 19.420700 -40.985400 0.000008 0.000006 -1.724440 -0.267074 -62.714700 -11.754300 -0.000006 -0.000006 -0.004170 -0.053194 -18.737000
0.000000 0.000000 0.000000 0.000000 0.000000 -0.000000 -0.622966 92.230100 -1.525740 87.955800 -0.504185 3.182840 15.735700 0.000005 -0.000001 81.977900 87.236700 -81.560700 8.984550 -0.406207 -0.000000 -2.290460 -0.807647 0.818269 16.377300 -0.000001 -0.000001 -3.211660 -2.583770 0.723783 6.456720 -0.000001 -0.000000 -4.130890 -3.256190 1.478090 12.994200 -0.242716 4.980390 -84.806700 -10.368900 -63.207200 5.348090 -0.000007 -0.000001 -57.045500 -55.044200 -68.695200 24.328600 0.000019 0.000005 -2.009050 -3.165540 -32.425500 22.291600 -0.000001 0.000005 20.584200 5.536340 -8.077120 12.994500 -0.242716 -4.980390 92.190300 -4.617450 -64.587100 -5.348130 -0.000001 -0.000004 -58.871700 -53.948100 -82.083200 -24.328900 0.000322 -0.000009 -0.260898 -0.567103 -24.611800 -22.291500 -0.000108 -0.000004 17.921100 5.393060 -2.713260 -2.192480 -6.469440 -0.000000 -169.646000 -16.835300 -3.482570 39.081100 -0.000007 -0.000012 -0.160103 0.412753 21.201000 40.985400 -0.000006 -0.000013 -6.864860 -3.017070 -62.555600 11.754300 -0.000000 0.000003 -0.000131 -0.001294 -16.626900 -2.192510 6.469440 -0.000001 174.516000 22.110500 178.664000 -39.081100 -0.002282 -0.040193 0.025126 -0.061927 19.396500 -40.985400 0.000008 0.000006 -1.626020 -0.304250 -62.650900 -11.754300 -0.000006 -0.000006 -0.004014 -0.051588 -18.671600
0.000000 0.000000 0.000000 0.000000 0.000000 -0.000000 -0.632790 92.243300 -1.631310 87.937400 -0.420065 3.211410 15.735700 0.000005 -0.000001 81.956000 87.239800 -81.526500 8.984550 -0.406207 -0.000000 -2.296900 -0.809956 0.842758 16.377300 -0.000001 -0.000001 -3.220620 -2.659880 0.757154 6.456720 -0.000001 -0.000000 -4.119560 -3.275020 1.485690 12.994200 -0.242716 4.980390 -84.659900 -10.603400 -63.070200 5.348090 -0.000007 -0.000001 -57.413300 -54.712700 -73.300900 24.328600 0.000019 0.000005 -2.270470 -3.389290 -33.847700 22.291600 -0.000001 0.000005 20.442000 5.540580 -8.269190 12.994500 -0.242716 -4.980390 92.365500 -5.004740 -64.660900 -5.348130 -0.000001 -0.000004 -59.622500 -54.101800 -86.823600 -24.328900 0.000322 -0.000009 -0.412366 -0.830236 -26.356200 -22.291500 -0.000108 -0.000004 17.670600 5.401290 -2.979450 -2.192480 -6.469440 -0.000000 -169.642000 -16.781100 -3.526670 39.081100 -0.000007 -0.000012 -0.157409 0.406643 21.161300 40.985400 -0.000006 -0.000013 -6.835530 -2.983670 -62.458400 11.754300 -0.000000 0.000003 -0.000120 -0.001206 -16.623600 -2.192510 6.469440 -0.000001 174.575000 22.148400 178.626000 -39.081100 -0.002282 -0.040193 0.027175 -0.067830 19.374200 -40.985400 0.000008 0.000006 -1.526910 -0.407188 -62.573500 -11.754300 -0.000006 -0.000006 -0.004135 -0.052841 -18.722600
